<?xml version="1.0" encoding="utf-8"?>
<!-- Generator: Adobe Illustrator 27.6.1, SVG Export Plug-In . SVG Version: 6.00 Build 0)  -->
<svg version="1.1" id="Layer_2_00000046304890052652116990000013564332189999502210_" width="130" height="37"
	 xmlns="http://www.w3.org/2000/svg" xmlns:xlink="http://www.w3.org/1999/xlink" x="0px" y="0px" viewBox="0 0 461 122.8"
	 style="enable-background:new 0 0 461 122.8;" xml:space="preserve">
<style type="text/css">
	.st0{fill:url(#SVGID_1_);stroke:#FFFFFF;stroke-miterlimit:10;}
	.st1{fill:#FFFFFF;stroke:#FFFFFF;stroke-miterlimit:10;}
	.st2{clip-path:url(#SVGID_00000070840518200696052290000001928496266019018369_);}
	.st3{fill:#ED1F24;}
	.st4{fill:#FFFFFF;}
	.st5{fill:url(#SVGID_00000136408298736954915610000014912059589462185143_);stroke:#FFFFFF;stroke-width:2;stroke-miterlimit:10;}
	.st6{fill:url(#SVGID_00000149352510986133468240000003195643644054198435_);stroke:#FFFFFF;stroke-width:2;stroke-miterlimit:10;}
	.st7{fill:url(#SVGID_00000003817916168308955240000014176453562817984933_);stroke:#FFFFFF;stroke-width:2;stroke-miterlimit:10;}
	.st8{fill:url(#SVGID_00000145018656694596523330000017892888909918227858_);stroke:#FFFFFF;stroke-width:2;stroke-miterlimit:10;}
</style>
<g id="Combo">
	
		<radialGradient id="SVGID_1_" cx="64.28" cy="62.4898" r="60.9" gradientTransform="matrix(1 0 0 -1 0 123.8898)" gradientUnits="userSpaceOnUse">
		<stop  offset="0" style="stop-color:#ED1F24"/>
		<stop  offset="1" style="stop-color:#ED1F24"/>
	</radialGradient>
	<circle class="st0" cx="64.3" cy="61.4" r="60.9"/>
	<rect x="0.5" y="55.9" class="st1" width="128" height="10"/>
	<rect x="91" y="4" class="st1" width="12" height="113"/>
	<g>
		<g>
			<defs>
				<path id="SVGID_00000065057294194344031030000002592884370009086862_" d="M85.7,51.1L85.7,51.1c2.8,1.8,3.6,5.5,1.7,8.3L79.9,71
					c-1.8,2.8-5.5,3.6-8.3,1.7l0,0c-2.8-1.8-3.6-5.5-1.7-8.3l7.6-11.6C79.2,50.1,82.9,49.3,85.7,51.1z"/>
			</defs>
			<clipPath id="SVGID_00000084525087971279354730000002477028653660558998_">
				<use xlink:href="#SVGID_00000065057294194344031030000002592884370009086862_"  style="overflow:visible;"/>
			</clipPath>
			<g style="clip-path:url(#SVGID_00000084525087971279354730000002477028653660558998_);">
				<rect x="68" y="49.3" class="st3" width="21.2" height="25.2"/>
				
					<ellipse transform="matrix(0.5467 -0.8373 0.8373 0.5467 -16.1938 93.8987)" class="st3" cx="78.6" cy="61.9" rx="10.2" ry="10"/>
				<ellipse transform="matrix(0.5467 -0.8373 0.8373 0.5467 -16.1938 93.8987)" class="st3" cx="78.6" cy="61.9" rx="5.1" ry="5"/>
			</g>
		</g>
		<path class="st4" d="M74.8,74.7c-1.3,0-2.6-0.4-3.8-1.1l0,0c-3.2-2.1-4.1-6.4-2-9.7l7.6-11.6c2.1-3.2,6.4-4.1,9.7-2s4.1,6.5,2,9.7
			l-7.6,11.6C79.4,73.6,77.1,74.7,74.8,74.7z M72.1,71.9c2.3,1.5,5.4,0.8,6.9-1.4l7.6-11.6c1.5-2.3,0.8-5.4-1.4-6.9
			c-2.3-1.5-5.4-0.8-6.9,1.5L70.7,65C69.2,67.3,69.8,70.4,72.1,71.9L72.1,71.9z"/>
	</g>
	
		<radialGradient id="SVGID_00000013878957467511663800000007529304501831597958_" cx="62.845" cy="445.5171" r="9.9515" gradientTransform="matrix(1 0 0 -1.82 0 868.4995)" gradientUnits="userSpaceOnUse">
		<stop  offset="0" style="stop-color:#ED1F24"/>
		<stop  offset="1" style="stop-color:#ED1F24"/>
	</radialGradient>
	
		<path style="fill:url(#SVGID_00000013878957467511663800000007529304501831597958_);stroke:#FFFFFF;stroke-width:2;stroke-miterlimit:10;" d="
		M62.8,34L62.8,34c3.3,0,6,2.7,6,6v34.4c0,3.3-2.7,6-6,6l0,0c-3.3,0-6-2.7-6-6V40C56.8,36.6,59.5,34,62.8,34z"/>
	
		<radialGradient id="SVGID_00000121958925408649751410000017616469528506329244_" cx="28.465" cy="102.3798" r="9.9485" gradientTransform="matrix(1 0 0 -1.25 0 191.7723)" gradientUnits="userSpaceOnUse">
		<stop  offset="0" style="stop-color:#ED1F24"/>
		<stop  offset="1" style="stop-color:#ED1F24"/>
	</radialGradient>
	
		<path style="fill:url(#SVGID_00000121958925408649751410000017616469528506329244_);stroke:#FFFFFF;stroke-width:2;stroke-miterlimit:10;" d="
		M28.5,48L28.5,48c3.3,0,6,2.7,6,6v19.9c0,3.3-2.7,6-6,6l0,0c-3.3,0-6-2.7-6-6V54C22.5,50.7,25.2,48,28.5,48z"/>
	
		<radialGradient id="SVGID_00000144333448089540259760000006692007446002693255_" cx="38.755" cy="394.8868" r="9.9434" gradientTransform="matrix(1 0 0 -1.65 0 710.9382)" gradientUnits="userSpaceOnUse">
		<stop  offset="0" style="stop-color:#ED1F24"/>
		<stop  offset="1" style="stop-color:#ED1F24"/>
	</radialGradient>
	
		<path style="fill:url(#SVGID_00000144333448089540259760000006692007446002693255_);stroke:#FFFFFF;stroke-width:2;stroke-miterlimit:10;" d="
		M38.8,38.4L38.8,38.4c3.3,0,6,2.7,6,6v30c0,3.3-2.7,6-6,6h0c-3.3,0-6-2.7-6-6v-30C32.8,41,35.4,38.4,38.8,38.4z"/>
	
		<radialGradient id="SVGID_00000111913360232645009390000008406596907455632564_" cx="50.845" cy="445.5171" r="9.9486" gradientTransform="matrix(1 0 0 -1.82 0 868.4995)" gradientUnits="userSpaceOnUse">
		<stop  offset="0" style="stop-color:#ED1F24"/>
		<stop  offset="1" style="stop-color:#ED1F24"/>
	</radialGradient>
	
		<path style="fill:url(#SVGID_00000111913360232645009390000008406596907455632564_);stroke:#FFFFFF;stroke-width:2;stroke-miterlimit:10;" d="
		M50.8,34L50.8,34c3.3,0,6,2.7,6,6v34.4c0,3.3-2.7,6-6,6l0,0c-3.3,0-6-2.7-6-6V40C44.8,36.6,47.5,34,50.8,34z"/>
	<g>
		<path d="M134.6,15.3c0-2.4,1.5-3.8,3.9-3.8h0.1c2.5,0,3.9,1.4,3.9,3.8v23.3c0,4.3,1.9,6.1,5.9,6.1c1.7,0,3.6-0.4,6.2-0.8l1.1-0.1
			c2.1,0,3.6,1.4,3.6,3.6c0,1.9-1.1,3.1-3.2,3.6c-2.6,0.7-4.5,1-7.3,1c-9.5,0-14.3-4.3-14.3-13L134.6,15.3L134.6,15.3z M176.2,62V35
			h-5.5v26.3c0,2.4-1.5,3.8-3.9,3.8s-4.1-1.4-4.1-3.8V12.8c0-2.4,1.6-3.8,4.1-3.8s3.9,1.4,3.9,3.8v14.9h5.5V12.2
			c0-2.4,1.6-3.8,4.1-3.8s3.9,1.4,3.9,3.8V62c0,2.4-1.5,3.8-3.9,3.8S176.2,64.4,176.2,62z"/>
		<path d="M191.5,36.8h19.2v-4.1c0-2.2,1.7-3.6,4.1-3.6h0.3c2.5,0,4.1,1.4,4.1,3.6v4.1h19.3c2.6,0,4.1,1.4,4.1,3.5s-1.6,3.7-4.1,3.7
			h-47.1c-2.6,0-4.1-1.5-4.1-3.7S188.9,36.8,191.5,36.8L191.5,36.8z M195.5,31.6c-0.4-0.7-0.7-1.4-0.7-2.2c0-1.5,0.8-2.9,2.3-3.5
			c9.2-3.8,13.9-7.5,14.1-13c0.1-2.4,1.7-3.8,4.1-3.8h0.2c2.6,0,4.1,1.4,4.1,3.8c0,1.9-0.3,3.7-1,5.4c5.1,2.1,11.1,5.1,14.9,7.7
			c1.2,0.7,1.8,1.6,1.8,2.9c0,0.9-0.3,1.7-1,2.5c-0.8,0.9-1.7,1.4-2.8,1.4c-0.7,0-1.5-0.2-2.4-0.8c-4.1-2.6-10.9-6.1-14.7-7.6
			c-3.1,3.1-7.8,5.8-13.9,8.2c-0.9,0.3-1.7,0.5-2.3,0.5C197.3,33,196.2,32.5,195.5,31.6L195.5,31.6z M196.2,51c0-2.4,1.5-3.8,4-3.8
			c2.7,0,4.3,1.4,4.3,3.8v1c0,4.8,3.2,6.7,11.7,6.7c4.5,0,9.8-0.8,13.4-2.2c0.7-0.2,1.3-0.3,1.7-0.3c1.6,0,2.9,0.9,3.4,2.5
			c0.1,0.4,0.2,0.8,0.2,1.1c0,1.6-1,2.7-2.9,3.5c-4.6,1.6-10.3,2.5-15.7,2.5c-13.1,0-19.9-4.6-19.9-13.7L196.2,51L196.2,51z"/>
		<path d="M245.2,24.3c0-8.2,6.3-14.8,16.3-14.8s16.2,6.6,16.2,14.8s-6.8,14.8-16.2,14.8S245.2,32.6,245.2,24.3z M261.6,31.9
			c4.6,0,8-3,8-7.6s-3.4-7.6-8-7.6s-8,3.1-8,7.6S256.9,31.9,261.6,31.9z M254,48.4c0-2.2,1.7-3.6,4.1-3.6h0.3c2.5,0,4.1,1.4,4.1,3.6
			v2.2c0,5.5,3.8,8.1,11.7,8.1c4.3,0,7.7-0.6,11.8-1.9c0.7-0.2,1.3-0.4,1.9-0.4c2.1,0,3.7,1.4,3.7,3.7c0,1.6-1.1,2.8-3.3,3.5
			c-4.1,1.4-9.2,2.2-15.3,2.2c-12.5,0-19.1-5.4-19.1-15.1L254,48.4L254,48.4z M282.5,12c0-2.2,1.7-3.6,4.1-3.6h0.3
			c2.5,0,4.1,1.4,4.1,3.6v8.7h4.9c2.5,0,4,1.4,4,3.6s-1.5,3.6-4,3.6h-4.9V44c0,2.2-1.7,3.6-4.1,3.6h-0.3c-2.5,0-4.1-1.4-4.1-3.6
			C282.5,44,282.5,12,282.5,12z"/>
		<path d="M302.5,48.4h10.6c6.8,0,15.3-0.6,20.3-1.7c0.5-0.1,1-0.2,1.4-0.2c2.2,0,3.6,1.4,3.6,3.5c0,1.7-1.1,3.1-3,3.5
			c-5.6,1.4-14.4,2-22.3,2h-10.6c-2.5,0-4-1.3-4-3.5C298.5,49.9,300.1,48.4,302.5,48.4L302.5,48.4z M300.7,24.8
			c0-8.5,6.6-15,16.2-15s16.3,6.4,16.3,15s-6.8,14.8-16.3,14.8S300.7,33.5,300.7,24.8z M317.1,32.4c4.6,0,7.9-3.3,7.9-7.7
			s-3.2-7.7-7.9-7.7s-8.2,3.2-8.2,7.7S312.3,32.4,317.1,32.4z M341.4,12c0-2.2,1.7-3.6,4.1-3.6h0.3c2.5,0,4.1,1.4,4.1,3.6v50.3
			c0,2.2-1.7,3.6-4.1,3.6h-0.3c-2.5,0-4.1-1.4-4.1-3.6C341.4,62.3,341.4,12,341.4,12z"/>
		<path d="M354.1,56.2c0-2.2,1.5-3.6,4-3.6h8.2V33.4c0-2.4,1.7-3.8,4.3-3.8c2.7,0,4.3,1.4,4.3,3.8v19.2h5V33.4
			c0-2.4,1.7-3.8,4.3-3.8c2.7,0,4.3,1.4,4.3,3.8v19.2h17.1c2.5,0,4,1.4,4,3.6s-1.5,3.6-4,3.6H358C355.5,59.8,354.1,58.4,354.1,56.2
			L354.1,56.2z M366.2,10.8H396c3.1,0,5.2,2,5.2,5.1c0,12.2-0.6,18.4-2.4,24.1c-0.6,1.6-1.9,2.5-3.6,2.5c-0.8,0-1.5-0.1-2-0.4
			c-1.5-0.6-2.3-1.8-2.3-3.5c0-0.5,0.1-1,0.2-1.4c1.2-4.9,1.5-10,1.5-18.5c0-0.4-0.2-0.6-0.6-0.6h-25.7c-2.5,0-4-1.4-4-3.6
			S363.8,10.8,366.2,10.8L366.2,10.8z"/>
		<path d="M409.6,54c0-2.2,1.6-3.7,4-3.7h11.6v-6.1c-5.9-1.6-10.1-6.4-10.1-11.8c0-2.2,0.6-4.1,1.7-6H415c-2.4,0-4-1.4-4-3.5
			s1.5-3.7,4-3.7h28.7c2.5,0,4,1.4,4,3.7s-1.6,3.5-4,3.5h-1.4c1.1,1.9,1.7,3.9,1.7,6c0,5.5-4.2,10.2-10.1,11.8v5.8
			c4.5-0.3,8-0.8,10.8-1.4c0.5-0.1,1-0.2,1.4-0.2c2.2,0,3.6,1.4,3.6,3.5c0,1.7-1.1,3.1-3,3.5c-5.6,1.4-14.4,2-22.3,2h-10.6
			C411.2,57.5,409.7,56.2,409.6,54L409.6,54z M416.6,9.2c0.7-0.9,1.7-1.4,2.9-1.4c0.7,0,1.3,0.2,2,0.5l0.9,0.4
			c0.6,0.3,1.9,0.4,3.8,0.4h12c2.4,0,3.9,1.5,3.9,3.7s-1.6,3.5-4,3.5h-11c-4.3,0-6.9-0.3-9-1.5l-0.8-0.4c-1.1-0.7-1.7-1.8-1.7-3.1
			C415.9,10.5,416.2,9.8,416.6,9.2L416.6,9.2z M429.5,37.5c3.6,0,6.1-2.1,6.1-5.2c0-2.9-2.6-5.2-6.1-5.2c-3.8,0-6.2,2.2-6.2,5.2
			S425.9,37.5,429.5,37.5z M452.4,12c0-2.2,1.7-3.6,4.1-3.6h0.3c2.5,0,4.1,1.4,4.1,3.6v50.3c0,2.2-1.7,3.6-4.1,3.6h-0.3
			c-2.5,0-4.1-1.4-4.1-3.6C452.4,62.3,452.4,12,452.4,12z"/>
	</g>
	<g>
		<path d="M218.8,102.4V83.6c0-1.2,0.6-1.9,1.6-1.9h4.7c3.7,0,6.2,2.8,6.2,6.8S228.9,95,225,95h-4.1v7.4c0,0.9-0.4,1.3-1.1,1.3
			S218.8,103.3,218.8,102.4L218.8,102.4z M225,92.6c2.4,0,3.9-1.7,3.9-4.2c0-2.7-1.5-4.3-3.9-4.3h-3.8c-0.2,0-0.3,0.2-0.3,0.4v8.1
			C220.9,92.6,225,92.6,225,92.6z"/>
		<path d="M232.2,102.4V89.9c0-0.9,0.4-1.3,1.1-1.3s1.1,0.5,1.1,1.3v0.6c0.8-1.3,2-2.1,3.4-2.1c1,0,1.8,0.2,2.4,0.6
			c0.3,0.2,0.5,0.6,0.5,1c0,0.3,0,0.5-0.2,0.7c-0.2,0.3-0.4,0.5-0.7,0.5c-0.2,0-0.4-0.1-0.5-0.2c-0.4-0.2-0.8-0.3-1.4-0.3
			c-1.9,0-3.4,2.1-3.4,5v6.6c0,0.9-0.4,1.3-1.1,1.3S232.2,103.3,232.2,102.4L232.2,102.4z"/>
		<path d="M244.4,102.8c-1.9-1.4-3.1-3.9-3.1-6.7c0-1.4,0.3-2.7,0.8-3.8c1.1-2.4,3.1-3.8,5.4-3.8c1.1,0,2.2,0.3,3.1,1
			c1.9,1.4,3.1,3.9,3.1,6.6c0,1.4-0.3,2.7-0.8,3.8c-1.1,2.4-3.1,3.8-5.4,3.8C246.4,103.8,245.3,103.5,244.4,102.8L244.4,102.8z
			 M247.5,101.5c2.4,0,4.1-2.3,4.1-5.3s-1.7-5.3-4.1-5.3s-4.1,2.2-4.1,5.3S245.2,101.5,247.5,101.5z"/>
		<path d="M258.9,102.9l-4.6-12.4c-0.1-0.2-0.1-0.4-0.1-0.6c0-0.7,0.5-1.2,1.2-1.2c0.4,0,0.8,0.3,1,0.9L260,100l3.6-10.4
			c0.2-0.6,0.5-0.9,1-0.9c0.1,0,0.2,0,0.4,0.1c0.5,0.2,0.7,0.6,0.7,1.1c0,0.1,0,0.3-0.1,0.6l-4.5,12.4c-0.2,0.6-0.6,0.9-1.1,0.9
			S259.1,103.5,258.9,102.9L258.9,102.9z"/>
		<path d="M266.3,96.2c0-4.7,2.2-7.7,5.7-7.7c1.1,0,2.1,0.3,3,1c1.8,1.3,2.8,3.8,2.7,6.7c0,0.8-0.4,1.2-1.1,1.2h-8
			c0.3,2.7,1.8,4.2,3.8,4.2c1.1,0,2.1-0.3,2.8-1.1c0.2-0.2,0.5-0.3,0.8-0.3c0.2,0,0.5,0.1,0.6,0.3s0.3,0.5,0.3,0.8
			c0,0.4-0.1,0.7-0.4,1c-0.8,0.9-2.5,1.6-4.1,1.6C268.7,103.8,266.3,100.9,266.3,96.2L266.3,96.2z M275.4,95
			c-0.1-2.5-1.5-4.2-3.4-4.2s-3.1,1.5-3.5,4.2H275.4z"/>
		<path d="M283,102.4V89.9c0-0.9,0.4-1.3,1.1-1.3s1.1,0.5,1.1,1.3v0.6c0.8-1.4,1.8-2.1,3.1-2.1c1.6,0,2.9,0.8,3.6,2.3
			c0.9-1.5,2.3-2.3,3.8-2.3c2.8,0,4.7,2.5,4.7,6.7v7.3c0,0.9-0.4,1.3-1.1,1.3s-1.1-0.5-1.1-1.3v-7.2c0-2.9-0.9-4.4-2.5-4.4
			s-2.9,1.7-2.9,4.5v7.1c0,0.9-0.4,1.3-1.1,1.3s-1.1-0.5-1.1-1.3v-7.2c0-2.9-0.9-4.4-2.5-4.4s-2.9,1.8-2.9,4.8v6.8
			c0,0.9-0.4,1.3-1.1,1.3S283,103.3,283,102.4L283,102.4z"/>
		<path d="M301.2,107.9c-0.3-0.4-0.4-0.8-0.4-1.1c0-0.2,0.1-0.5,0.3-0.8c0.2-0.3,0.5-0.4,0.7-0.4c0.3,0,0.5,0.1,0.7,0.4
			c0.4,0.5,0.8,0.8,1.2,0.8c1,0,1.6-1.5,2.4-4.1l-4.9-12.4c-0.1-0.2-0.1-0.4-0.1-0.6c0-0.5,0.3-0.9,0.8-1.1c0.2-0.1,0.3-0.1,0.4-0.1
			c0.4,0,0.8,0.3,1,0.9l3.9,10.4l3.3-10.4c0.2-0.6,0.5-0.9,1-0.9c0.1,0,0.2,0,0.4,0.1c0.5,0.2,0.7,0.6,0.7,1.1c0,0.1,0,0.3-0.1,0.6
			l-4.4,12.9c-0.5,1.4-0.9,2.6-1.3,3.5c-0.8,1.7-1.8,2.4-3.3,2.4C302.7,109.2,301.8,108.8,301.2,107.9L301.2,107.9z"/>
		<path d="M318,100.4V82.7c0-0.9,0.4-1.3,1.1-1.3s1.1,0.5,1.1,1.3v17.8c0,0.7,0.2,0.9,0.7,0.9c0.7,0,1.1,0.4,1.1,1.2
			s-0.4,1.2-1.1,1.2C318.9,103.8,318,102.8,318,100.4L318,100.4z"/>
		<path d="M323.8,82.1c0.8,0,1.4,0.8,1.4,1.7s-0.6,1.7-1.4,1.7s-1.4-0.7-1.4-1.7S323,82.1,323.8,82.1z M322.7,102.4V89.9
			c0-0.9,0.4-1.3,1.1-1.3s1.1,0.5,1.1,1.3v12.5c0,0.9-0.4,1.3-1.1,1.3S322.7,103.3,322.7,102.4z"/>
		<path d="M328.3,102.4V91.1h-1.2c-0.7,0-1.1-0.4-1.1-1.2s0.4-1.2,1.1-1.2h1.2V88c0-4.6,1.6-6.7,4.5-6.7c1.4,0,2.5,0.6,3.4,1.6
			c0.3,0.3,0.4,0.7,0.4,1.1c0,0.3-0.1,0.5-0.2,0.7c-0.2,0.3-0.5,0.4-0.7,0.4c-0.3,0-0.5-0.1-0.7-0.4c-0.6-0.8-1.2-1.1-2.1-1.1
			c-1.6,0-2.3,1.3-2.3,4.5v0.6h4.3c0.7,0,1.1,0.4,1.1,1.2s-0.4,1.2-1.1,1.2h-4.3v11.3c0,0.9-0.4,1.3-1.1,1.3
			S328.4,103.3,328.3,102.4L328.3,102.4z"/>
		<path d="M336.9,96.2c0-4.7,2.2-7.7,5.7-7.7c1.1,0,2.1,0.3,3,1c1.8,1.3,2.8,3.8,2.7,6.7c0,0.8-0.4,1.2-1.1,1.2h-8
			c0.3,2.7,1.8,4.2,3.8,4.2c1.1,0,2.1-0.3,2.8-1.1c0.2-0.2,0.5-0.3,0.8-0.3c0.2,0,0.5,0.1,0.6,0.3s0.3,0.5,0.3,0.8
			c0,0.4-0.1,0.7-0.4,1c-0.8,0.9-2.5,1.6-4.1,1.6C339.3,103.8,336.9,100.9,336.9,96.2L336.9,96.2z M345.9,95
			c-0.1-2.5-1.5-4.2-3.4-4.2s-3.1,1.5-3.5,4.2H345.9z"/>
		<path d="M355.2,102.4V91.1H354c-0.7,0-1.1-0.4-1.1-1.2s0.4-1.2,1.1-1.2h1.2V88c0-4.6,1.6-6.7,4.5-6.7c1.4,0,2.5,0.6,3.4,1.6
			c0.3,0.3,0.4,0.7,0.4,1.1c0,0.3-0.1,0.5-0.2,0.7c-0.2,0.3-0.5,0.4-0.7,0.4c-0.3,0-0.5-0.1-0.7-0.4c-0.6-0.8-1.2-1.1-2.1-1.1
			c-1.6,0-2.3,1.3-2.3,4.5v0.6h4.3c0.7,0,1.1,0.4,1.1,1.2s-0.4,1.2-1.1,1.2h-4.3v11.3c0,0.9-0.4,1.3-1.1,1.3
			S355.2,103.3,355.2,102.4L355.2,102.4z"/>
		<path d="M364,102.4V89.9c0-0.9,0.4-1.3,1.1-1.3s1.1,0.5,1.1,1.3v0.6c0.8-1.3,2-2.1,3.4-2.1c1,0,1.8,0.2,2.4,0.6
			c0.3,0.2,0.5,0.6,0.5,1c0,0.3,0,0.5-0.2,0.7c-0.2,0.3-0.4,0.5-0.7,0.5c-0.2,0-0.4-0.1-0.5-0.2c-0.4-0.2-0.8-0.3-1.4-0.3
			c-1.9,0-3.4,2.1-3.4,5v6.6c0,0.9-0.4,1.3-1.1,1.3S364,103.3,364,102.4L364,102.4z"/>
		<path d="M376.2,102.8c-1.9-1.4-3.1-3.9-3.1-6.7c0-1.4,0.3-2.7,0.8-3.8c1.1-2.4,3.1-3.8,5.4-3.8c1.1,0,2.2,0.3,3.1,1
			c1.9,1.4,3.1,3.9,3.1,6.6c0,1.4-0.3,2.7-0.8,3.8c-1.1,2.4-3.1,3.8-5.4,3.8C378.2,103.8,377.1,103.5,376.2,102.8L376.2,102.8z
			 M379.3,101.5c2.4,0,4.1-2.3,4.1-5.3s-1.7-5.3-4.1-5.3s-4.1,2.2-4.1,5.3S377,101.5,379.3,101.5z"/>
		<path d="M387,102.4V89.9c0-0.9,0.4-1.3,1.1-1.3s1.1,0.5,1.1,1.3v0.6c0.8-1.4,1.8-2.1,3.1-2.1c1.6,0,2.9,0.8,3.6,2.3
			c0.9-1.5,2.3-2.3,3.8-2.3c2.8,0,4.7,2.5,4.7,6.7v7.3c0,0.9-0.4,1.3-1.1,1.3s-1.1-0.5-1.1-1.3v-7.2c0-2.9-0.9-4.4-2.5-4.4
			s-2.9,1.7-2.9,4.5v7.1c0,0.9-0.4,1.3-1.1,1.3s-1.1-0.5-1.1-1.3v-7.2c0-2.9-0.9-4.4-2.5-4.4s-2.9,1.8-2.9,4.8v6.8
			c0,0.9-0.4,1.3-1.1,1.3S387,103.3,387,102.4L387,102.4z"/>
		<path d="M413.6,102.4c-2.3-1.9-3.6-5.4-3.6-9.7c0-2.2,0.3-4.1,1-5.8c1.3-3.5,3.8-5.4,6.7-5.4c1.9,0,3.7,0.8,4.7,1.9
			c0.2,0.3,0.4,0.6,0.4,0.9c0,0.2-0.1,0.5-0.2,0.8c-0.2,0.3-0.4,0.5-0.7,0.5c-0.2,0-0.4-0.1-0.6-0.3c-1.1-0.9-2.1-1.4-3.5-1.4
			c-3.2,0-5.5,3.3-5.5,8.9c0,1.8,0.2,3.3,0.7,4.6c0.9,2.7,2.6,4.2,4.8,4.2c1.2,0,2.6-0.4,3.2-1.1V94c0-0.2-0.2-0.4-0.3-0.4h-2.2
			c-0.7,0-1.1-0.4-1.1-1.2s0.4-1.2,1.1-1.2h3.1c1,0,1.5,0.7,1.5,1.9v7.3c0,0.8-0.2,1.3-0.7,1.7c-1.1,1.1-2.9,1.8-4.7,1.8
			C416.1,103.8,414.7,103.4,413.6,102.4L413.6,102.4z"/>
		<path d="M427.4,102.8c-1.9-1.4-3.1-3.9-3.1-6.7c0-1.4,0.3-2.7,0.8-3.8c1.1-2.4,3.1-3.8,5.4-3.8c1.1,0,2.2,0.3,3.1,1
			c1.9,1.4,3.1,3.9,3.1,6.6c0,1.4-0.3,2.7-0.8,3.8c-1.1,2.4-3.1,3.8-5.4,3.8C429.4,103.8,428.4,103.5,427.4,102.8L427.4,102.8z
			 M430.6,101.5c2.4,0,4.1-2.3,4.1-5.3s-1.7-5.3-4.1-5.3s-4.1,2.2-4.1,5.3S428.3,101.5,430.6,101.5z"/>
		<path d="M440.9,102.8c-1.9-1.4-3-3.8-3-6.7c0-1.4,0.3-2.7,0.8-3.8c1.1-2.4,3-3.8,5.2-3.8c1.6,0,2.9,0.7,3.9,2.1v-7.9
			c0-0.9,0.4-1.3,1.1-1.3s1.1,0.5,1.1,1.3v19.8c0,0.9-0.4,1.3-1.1,1.3s-1.1-0.5-1.1-1.3v-0.8c-1,1.4-2.3,2.1-3.9,2.1
			C442.9,103.8,441.8,103.4,440.9,102.8L440.9,102.8z M444,101.5c2.1,0,3.9-2.2,3.9-5.3s-1.7-5.3-3.9-5.3s-3.8,2.2-3.8,5.3
			S441.7,101.5,444,101.5z"/>
	</g>
</g>
</svg>
