<svg xmlns="http://www.w3.org/2000/svg" viewBox="0 0 467.97 112.58"><defs><style>.cls-1{fill:#ec1c23;}.cls-2{fill:none;stroke:#fff;stroke-miterlimit:10;stroke-width:3px;}.cls-3{fill:#fff;}</style></defs><title>cih-logo-svgAsset 24</title><g id="Layer_2" data-name="Layer 2"><g id="Combo"><path d="M127.39,16c0-2.51,1.53-4,4.12-4h.14c2.59,0,4.12,1.5,4.12,4v24.3c0,4.51,1.93,6.32,6.18,6.32a36.76,36.76,0,0,0,6.45-.87l1.13-.13a3.61,3.61,0,0,1,3.79,3.76c0,1.94-1.13,3.2-3.39,3.76a25.62,25.62,0,0,1-7.65,1c-9.9,0-14.89-4.51-14.89-13.53Zm43.42,48.79V36.49H165V63.92c0,2.51-1.53,4-4.12,4s-4.25-1.5-4.25-4V13.38c0-2.51,1.66-4,4.25-4s4.12,1.5,4.12,4V29h5.79V12.75c0-2.5,1.66-4,4.25-4s4.12,1.51,4.12,4v52c0,2.5-1.52,4-4.12,4S170.81,67.24,170.81,64.74Z"/><path d="M186.82,38.43H206.9V34.17c0-2.32,1.73-3.76,4.32-3.76h.34c2.59,0,4.32,1.44,4.32,3.76v4.26H236c2.73,0,4.33,1.44,4.33,3.7S238.68,46,236,46h-49.2c-2.65,0-4.32-1.57-4.32-3.82S184.1,38.43,186.82,38.43ZM191,33a4.22,4.22,0,0,1-.73-2.32,3.81,3.81,0,0,1,2.4-3.63c9.64-3.94,14.56-7.83,14.75-13.53.07-2.5,1.73-4,4.33-4H212c2.66,0,4.32,1.51,4.32,4a14.48,14.48,0,0,1-1.06,5.64,96.16,96.16,0,0,1,15.56,8,3.23,3.23,0,0,1,1.86,3,4.15,4.15,0,0,1-3.92,4,4.61,4.61,0,0,1-2.46-.81,117.18,117.18,0,0,0-15.29-8c-3.26,3.26-8.12,6.08-14.5,8.52a7.68,7.68,0,0,1-2.39.5A3.79,3.79,0,0,1,191,33Zm.67,20.23c0-2.5,1.59-4,4.19-4,2.86,0,4.45,1.5,4.45,4v1.07c0,5,3.39,7,12.17,7a42.7,42.7,0,0,0,14-2.25,7.83,7.83,0,0,1,1.73-.31,3.55,3.55,0,0,1,3.52,2.63,3.8,3.8,0,0,1,.2,1.19c0,1.63-1,2.82-3,3.63a51.65,51.65,0,0,1-16.42,2.63c-13.63,0-20.81-4.82-20.81-14.28Z"/><path d="M242.87,25.4c0-8.58,6.58-15.47,17-15.47s16.95,6.89,16.95,15.47c0,8.9-7,15.41-16.95,15.41C249.51,40.81,242.87,34.05,242.87,25.4Zm17,7.9c4.78,0,8.31-3.14,8.31-7.9s-3.53-7.95-8.31-7.95-8.38,3.26-8.38,8S255,33.3,259.89,33.3ZM252,50.52c0-2.32,1.72-3.76,4.32-3.76h.33c2.59,0,4.32,1.44,4.32,3.76v2.26c0,5.7,3.92,8.45,12.23,8.45a39.21,39.21,0,0,0,12.3-1.94,6.31,6.31,0,0,1,2-.38,3.66,3.66,0,0,1,3.85,3.89c0,1.69-1.13,2.88-3.45,3.69a48.79,48.79,0,0,1-16,2.26C258.82,68.75,252,63.11,252,53Zm29.78-38c0-2.32,1.73-3.76,4.32-3.76h.33c2.6,0,4.33,1.44,4.33,3.76v9.08h5.12c2.59,0,4.12,1.44,4.12,3.76s-1.53,3.76-4.12,3.76h-5.12V46c0,2.32-1.73,3.76-4.33,3.76h-.33c-2.59,0-4.32-1.44-4.32-3.76Z"/><path d="M302.57,50.52h11.1c7.11,0,16-.63,21.21-1.82a6.47,6.47,0,0,1,1.46-.18,3.49,3.49,0,0,1,3.79,3.69,3.8,3.8,0,0,1-3.13,3.7C331.15,57.35,322,58,313.73,58h-11.1c-2.59,0-4.12-1.32-4.19-3.64A3.81,3.81,0,0,1,302.57,50.52ZM300.7,25.84c0-8.89,6.85-15.66,17-15.66,9.84,0,17,6.64,17,15.66s-7.05,15.47-17,15.47S300.7,35,300.7,25.84Zm17.09,8a7.9,7.9,0,0,0,8.24-8c0-4.76-3.39-8.08-8.24-8.08-5.05,0-8.51,3.32-8.51,8.08C309.28,30.35,312.8,33.8,317.79,33.8Zm25.4-21.3c0-2.32,1.73-3.76,4.32-3.76h.33c2.6,0,4.32,1.44,4.32,3.76V65c0,2.32-1.72,3.76-4.32,3.76h-.33c-2.59,0-4.32-1.44-4.32-3.76Z"/><path d="M356.41,58.66c0-2.31,1.53-3.76,4.13-3.76h8.57v-20c0-2.5,1.8-4,4.46-4,2.86,0,4.52,1.51,4.52,4v20h5.25v-20c0-2.5,1.8-4,4.45-4,2.86,0,4.53,1.51,4.53,4v20h17.81c2.6,0,4.13,1.45,4.13,3.76s-1.53,3.76-4.13,3.76H360.54C357.94,62.42,356.41,61,356.41,58.66Zm12.7-47.35h31.05a5.13,5.13,0,0,1,5.45,5.32c0,12.72-.6,19.17-2.52,25.18a3.81,3.81,0,0,1-3.79,2.63,4.64,4.64,0,0,1-2.13-.43,3.62,3.62,0,0,1-2.39-3.7,5.93,5.93,0,0,1,.19-1.5c1.27-5.08,1.6-10.4,1.6-19.36,0-.44-.2-.62-.66-.62h-26.8c-2.59,0-4.12-1.44-4.12-3.76S366.52,11.31,369.11,11.31Z"/><path d="M414.38,56.35a3.81,3.81,0,0,1,4.12-3.89h12.11V46.07C424.42,44.38,420,39.43,420,33.73a11.65,11.65,0,0,1,1.8-6.26H420c-2.46,0-4.12-1.44-4.12-3.69S417.37,20,420,20h29.92c2.59,0,4.12,1.51,4.12,3.83s-1.66,3.69-4.12,3.69h-1.47a12.38,12.38,0,0,1,1.73,6.26c0,5.7-4.39,10.65-10.57,12.34v6a80.55,80.55,0,0,0,11.24-1.44,6,6,0,0,1,1.46-.19,3.49,3.49,0,0,1,3.79,3.69,3.8,3.8,0,0,1-3.13,3.7c-5.85,1.44-15,2.13-23.27,2.13h-11.1C416,60,414.45,58.66,414.38,56.35ZM421.7,9.62a3.72,3.72,0,0,1,3.05-1.44,5.3,5.3,0,0,1,2.13.5l.93.44a10.77,10.77,0,0,0,4,.44h12.57a3.72,3.72,0,0,1,4.05,3.82c0,2.25-1.66,3.69-4.12,3.69H432.87c-4.46,0-7.18-.31-9.38-1.56l-.8-.44a3.65,3.65,0,0,1-1.73-3.2A3.4,3.4,0,0,1,421.7,9.62Zm13.43,29.5c3.72,0,6.38-2.19,6.38-5.45,0-3-2.73-5.45-6.38-5.45-3.93,0-6.45,2.26-6.45,5.45S431.34,39.12,435.13,39.12ZM459,12.5c0-2.32,1.72-3.76,4.32-3.76h.33c2.59,0,4.32,1.44,4.32,3.76V65c0,2.32-1.73,3.76-4.32,3.76h-.33c-2.6,0-4.32-1.44-4.32-3.76Z"/><path d="M237.23,103.94V85.57c0-1.13.63-1.85,1.52-1.85h4.61c3.63,0,6,2.69,6,6.59s-2.27,6.43-6,6.43h-4v7.2c0,.85-.37,1.32-1,1.32S237.23,104.79,237.23,103.94Zm6.13-9.57c2.33,0,3.85-1.61,3.85-4.11s-1.5-4.16-3.85-4.16h-3.7a.37.37,0,0,0-.33.39v7.88Z"/><path d="M250.35,103.94V91.76c0-.84.36-1.31,1.06-1.31s1,.47,1,1.31v.61A4,4,0,0,1,258.05,91a1.13,1.13,0,0,1,.45.94,1.22,1.22,0,0,1-.15.66.75.75,0,0,1-.71.53.93.93,0,0,1-.52-.16,3.15,3.15,0,0,0-1.39-.29c-1.82,0-3.29,2-3.29,4.91v6.4c0,.85-.36,1.32-1,1.32S250.35,104.79,250.35,103.94Z"/><path d="M262.22,104.29a8,8,0,0,1-3-6.49,8.65,8.65,0,0,1,.83-3.74,5.92,5.92,0,0,1,5.27-3.72,5.24,5.24,0,0,1,3.08,1,8.08,8.08,0,0,1,3,6.46,8.54,8.54,0,0,1-.8,3.74,6,6,0,0,1-5.28,3.75A5.31,5.31,0,0,1,262.22,104.29Zm3.07-1.27c2.32,0,4-2.24,4-5.19s-1.64-5.2-4-5.2-4,2.11-4,5.2S263.07,103,265.29,103Z"/><path d="M276.39,104.36,272,92.24a2.16,2.16,0,0,1-.11-.56A1.17,1.17,0,0,1,273,90.47c.41,0,.73.29.95.9l3.55,10.17L281,91.37c.22-.61.54-.9,1-.9a1,1,0,0,1,.41.11,1.16,1.16,0,0,1,.71,1.1,2.16,2.16,0,0,1-.11.56l-4.39,12.12a1.13,1.13,0,0,1-2.21,0Z"/><path d="M283.58,97.83c0-4.62,2.16-7.49,5.56-7.49a4.84,4.84,0,0,1,2.9,1c1.73,1.29,2.7,3.69,2.61,6.54,0,.73-.39,1.16-1.08,1.16h-7.79c.33,2.61,1.71,4.06,3.7,4.06a3.87,3.87,0,0,0,2.75-1,1.08,1.08,0,0,1,.78-.35.82.82,0,0,1,.63.32,1.21,1.21,0,0,1,.26.76,1.47,1.47,0,0,1-.39,1,5.83,5.83,0,0,1-4.05,1.53C285.94,105.29,283.58,102.44,283.58,97.83Zm8.87-1.11c-.07-2.4-1.45-4.09-3.29-4.09s-3.07,1.43-3.4,4.09Z"/><path d="M299.89,103.94V91.76c0-.84.37-1.31,1.06-1.31s1,.47,1,1.31v.58a3.47,3.47,0,0,1,3-2,3.83,3.83,0,0,1,3.55,2.29,4.27,4.27,0,0,1,3.69-2.29c2.75,0,4.55,2.45,4.57,6.48v7.12c0,.85-.37,1.32-1,1.32s-1.06-.47-1.06-1.32v-7c0-2.87-.89-4.27-2.47-4.27s-2.85,1.69-2.85,4.41v6.9c0,.85-.37,1.32-1,1.32s-1.06-.47-1.06-1.32v-7c0-2.87-.89-4.27-2.47-4.27S302,94.43,302,97.3v6.64c0,.85-.37,1.32-1,1.32S299.89,104.79,299.89,103.94Z"/><path d="M317.63,109.32a2,2,0,0,1-.39-1.06,1.28,1.28,0,0,1,.26-.73.93.93,0,0,1,.72-.4.82.82,0,0,1,.69.4,1.56,1.56,0,0,0,1.19.76c1,0,1.53-1.45,2.36-4l-4.74-12.07a2.16,2.16,0,0,1-.11-.56,1.15,1.15,0,0,1,.74-1.1,1,1,0,0,1,.41-.11c.41,0,.73.29.95.9l3.81,10.17,3.24-10.17a1.09,1.09,0,0,1,1-.9,1,1,0,0,1,.42.11,1.16,1.16,0,0,1,.71,1.1,2.16,2.16,0,0,1-.11.56l-4.33,12.57a29.37,29.37,0,0,1-1.27,3.4c-.8,1.66-1.78,2.37-3.18,2.37A2.94,2.94,0,0,1,317.63,109.32Z"/><path d="M334,102V84.65c0-.85.37-1.32,1.06-1.32s1,.47,1,1.32V102c0,.64.22.93.71.93.7,0,1.09.39,1.09,1.16a1,1,0,0,1-1.09,1.16C334.94,105.29,334,104.29,334,102Z"/><path d="M339.68,84.09a1.53,1.53,0,0,1,1.38,1.66,1.4,1.4,0,1,1-2.77,0A1.53,1.53,0,0,1,339.68,84.09Zm-1.06,19.85V91.76c0-.84.37-1.31,1.06-1.31s1,.47,1,1.31v12.18c0,.85-.37,1.32-1,1.32S338.62,104.79,338.62,103.94Z"/><path d="M344.14,103.94V92.87H343c-.7,0-1.09-.39-1.09-1.16A1,1,0,0,1,343,90.55h1.19v-.71c0-4.46,1.53-6.56,4.36-6.56a4.21,4.21,0,0,1,3.27,1.52,1.66,1.66,0,0,1,.41,1.08,1.08,1.08,0,0,1-.24.72.82.82,0,0,1-1.4,0,2.43,2.43,0,0,0-2-1c-1.53,0-2.27,1.26-2.27,4.43v.55h4.22a1.16,1.16,0,0,1,0,2.32h-4.22v11.07c0,.85-.36,1.32-1.06,1.32S344.14,104.79,344.14,103.94Z"/><path d="M352.44,97.83c0-4.62,2.17-7.49,5.56-7.49a4.82,4.82,0,0,1,2.9,1c1.73,1.29,2.71,3.69,2.62,6.54,0,.73-.39,1.16-1.08,1.16h-7.79c.32,2.61,1.71,4.06,3.7,4.06a3.91,3.91,0,0,0,2.75-1,1,1,0,0,1,.78-.35.8.8,0,0,1,.62.32,1.15,1.15,0,0,1,.26.76,1.47,1.47,0,0,1-.39,1,5.81,5.81,0,0,1-4,1.53C354.8,105.29,352.44,102.44,352.44,97.83Zm8.87-1.11c-.06-2.4-1.45-4.09-3.29-4.09s-3.07,1.43-3.39,4.09Z"/><path d="M370.31,103.94V92.87h-1.19c-.69,0-1.08-.39-1.08-1.16a1,1,0,0,1,1.08-1.16h1.19v-.71c0-4.46,1.54-6.56,4.37-6.56A4.21,4.21,0,0,1,378,84.8a1.66,1.66,0,0,1,.41,1.08,1.13,1.13,0,0,1-.24.72.82.82,0,0,1-1.4,0,2.43,2.43,0,0,0-2-1c-1.53,0-2.27,1.26-2.27,4.43v.55h4.22a1.16,1.16,0,0,1,0,2.32h-4.22v11.07c0,.85-.37,1.32-1.06,1.32S370.31,104.79,370.31,103.94Z"/><path d="M378.9,103.94V91.76c0-.84.37-1.31,1.06-1.31s1,.47,1,1.31v.61A4,4,0,0,1,386.6,91a1.11,1.11,0,0,1,.46.94,1.22,1.22,0,0,1-.15.66.76.76,0,0,1-.72.53,1,1,0,0,1-.52-.16,3.07,3.07,0,0,0-1.38-.29c-1.82,0-3.29,2-3.29,4.91v6.4c0,.85-.37,1.32-1,1.32S378.9,104.79,378.9,103.94Z"/><path d="M390.78,104.29a8,8,0,0,1-3-6.49,8.51,8.51,0,0,1,.83-3.74,5.92,5.92,0,0,1,5.27-3.72,5.27,5.27,0,0,1,3.08,1,8.08,8.08,0,0,1,3,6.46,8.54,8.54,0,0,1-.8,3.74,6,6,0,0,1-5.28,3.75A5.31,5.31,0,0,1,390.78,104.29Zm3.07-1.27c2.32,0,4-2.24,4-5.19s-1.64-5.2-4-5.2-4,2.11-4,5.2S391.63,103,393.85,103Z"/><path d="M401.34,103.94V91.76c0-.84.37-1.31,1.06-1.31s1,.47,1,1.31v.58a3.47,3.47,0,0,1,3-2A3.81,3.81,0,0,1,410,92.63a4.29,4.29,0,0,1,3.7-2.29c2.75,0,4.55,2.45,4.57,6.48v7.12c0,.85-.37,1.32-1,1.32s-1.06-.47-1.06-1.32v-7c0-2.87-.89-4.27-2.47-4.27s-2.85,1.69-2.85,4.41v6.9c0,.85-.37,1.32-1,1.32s-1.06-.47-1.06-1.32v-7c0-2.87-.89-4.27-2.47-4.27s-2.85,1.8-2.85,4.67v6.64c0,.85-.37,1.32-1,1.32S401.34,104.79,401.34,103.94Z"/><path d="M427.3,103.94c-2.25-1.82-3.55-5.24-3.55-9.46a16.12,16.12,0,0,1,1-5.69c1.27-3.38,3.65-5.3,6.57-5.3a6.24,6.24,0,0,1,4.57,1.82,1.33,1.33,0,0,1,.34.92A1.39,1.39,0,0,1,436,87a.87.87,0,0,1-.72.44.85.85,0,0,1-.6-.26,5,5,0,0,0-3.38-1.37c-3.11,0-5.41,3.27-5.41,8.65a13.19,13.19,0,0,0,.68,4.48c.88,2.61,2.55,4.11,4.62,4.11a4.78,4.78,0,0,0,3.14-1V95.66a.37.37,0,0,0-.32-.39h-2.12c-.7,0-1.08-.4-1.08-1.16s.38-1.21,1.08-1.21h3c.93,0,1.51.71,1.51,1.84v7.12a2.25,2.25,0,0,1-.65,1.69,6.73,6.73,0,0,1-4.59,1.76A5.87,5.87,0,0,1,427.3,103.94Z"/><path d="M440.78,104.29a8,8,0,0,1-3-6.49,8.51,8.51,0,0,1,.83-3.74,5.92,5.92,0,0,1,5.27-3.72,5.24,5.24,0,0,1,3.08,1,8.08,8.08,0,0,1,3,6.46,8.54,8.54,0,0,1-.8,3.74,6,6,0,0,1-5.28,3.75A5.31,5.31,0,0,1,440.78,104.29Zm3.07-1.27c2.32,0,4-2.24,4-5.19s-1.64-5.2-4-5.2-4,2.11-4,5.2S441.63,103,443.85,103Z"/><path d="M454,104.29a8,8,0,0,1-2.9-6.49,8.82,8.82,0,0,1,.78-3.74,5.7,5.7,0,0,1,5.08-3.72,4.49,4.49,0,0,1,3.79,2.06V84.65c0-.85.36-1.32,1.06-1.32s1,.47,1,1.32v19.29c0,.85-.37,1.32-1,1.32s-1.06-.47-1.06-1.32v-.74a4.43,4.43,0,0,1-3.79,2.09A4.91,4.91,0,0,1,454,104.29Zm3-1.27c2.1,0,3.77-2.14,3.77-5.19s-1.67-5.2-3.77-5.2-3.74,2.19-3.74,5.2S454.76,103,456.92,103Z"/></g><g id="ver0.1"><rect class="cls-1" x="36.42" width="39.74" height="112.58" transform="translate(0 112.58) rotate(-90)"/><rect class="cls-1" x="36.42" width="39.74" height="112.58"/><circle class="cls-2" cx="55.93" cy="56.14" r="18.49"/><polygon class="cls-3" points="65.99 56.22 50.95 47.54 50.95 64.9 65.99 56.22"/></g></g></svg>