<?xml version="1.0" encoding="UTF-8"?>
<svg id="Layer_2" width="120" height="35" data-name="Layer 2" xmlns="http://www.w3.org/2000/svg" xmlns:xlink="http://www.w3.org/1999/xlink" viewBox="0 0 422.83 122.79">
  <defs>
    <style>
      .cls-1, .cls-2 {
        fill: none;
      }

      .cls-3 {
        fill: #ed1f24;
      }

      .cls-4, .cls-5 {
        fill: #fff;
      }

      .cls-6 {
        fill: url(#radial-gradient-5);
      }

      .cls-6, .cls-7, .cls-8, .cls-9 {
        stroke-width: 2px;
      }

      .cls-6, .cls-7, .cls-8, .cls-9, .cls-10, .cls-5 {
        stroke: #fff;
        stroke-miterlimit: 10;
      }

      .cls-7 {
        fill: url(#radial-gradient-3);
      }

      .cls-8 {
        fill: url(#radial-gradient-4);
      }

      .cls-9 {
        fill: url(#radial-gradient-2);
      }

      .cls-10 {
        fill: url(#radial-gradient);
      }

      .cls-2 {
        clip-path: url(#clippath);
      }
    </style>
    <radialGradient id="radial-gradient" cx="64.28" cy="61.4" fx="64.28" fy="61.4" r="60.9" gradientUnits="userSpaceOnUse">
      <stop offset="0" stop-color="#ed1f24"/>
      <stop offset="1" stop-color="#ed1f24"/>
    </radialGradient>
    <clipPath id="clippath">
      <rect class="cls-1" x="72.63" y="49" width="11.99" height="25.82" rx="6" ry="6" transform="translate(46.64 -32.92) rotate(33.14)"/>
    </clipPath>
    <radialGradient id="radial-gradient-2" cx="62.85" cy="-161.65" fx="62.85" fy="-161.65" r="9.95" gradientTransform="translate(0 351.87) scale(1 1.82)" xlink:href="#radial-gradient"/>
    <radialGradient id="radial-gradient-3" cx="28.46" cy="92.51" fx="28.46" fy="92.51" r="9.95" gradientTransform="translate(0 -51.85) scale(1 1.25)" xlink:href="#radial-gradient"/>
    <radialGradient id="radial-gradient-4" cx="38.76" cy="-131.1" fx="38.76" fy="-131.1" r="9.95" gradientTransform="translate(0 275.72) scale(1 1.65)" xlink:href="#radial-gradient"/>
    <radialGradient id="radial-gradient-5" cx="50.84" cy="-161.65" fx="50.84" fy="-161.65" r="9.95" gradientTransform="translate(0 351.87) scale(1 1.82)" xlink:href="#radial-gradient"/>
  </defs>
  <g id="Combo">
    <circle class="cls-10" cx="64.28" cy="61.4" r="60.9"/>
    <rect class="cls-5" x=".5" y="55.94" width="128" height="10"/>
    <rect class="cls-5" x="40.5" y="54.52" width="113.01" height="12" transform="translate(36.48 157.53) rotate(-90)"/>
    <g>
      <g class="cls-2">
        <rect class="cls-3" x="68.02" y="49.29" width="21.22" height="25.24"/>
        <ellipse class="cls-3" cx="78.63" cy="61.91" rx="10.18" ry="9.95" transform="translate(-16.2 93.9) rotate(-56.86)"/>
        <ellipse class="cls-3" cx="78.63" cy="61.91" rx="5.09" ry="4.98" transform="translate(-16.2 93.9) rotate(-56.86)"/>
      </g>
      <path class="cls-4" d="m74.84,74.69c-1.31,0-2.64-.37-3.81-1.14h0c-3.23-2.11-4.14-6.45-2.03-9.68l7.56-11.58c2.11-3.23,6.45-4.14,9.68-2.03,3.23,2.11,4.14,6.45,2.03,9.68l-7.56,11.58c-1.34,2.05-3.58,3.17-5.87,3.17Zm-2.72-2.81c2.31,1.51,5.41.85,6.92-1.45l7.56-11.58c1.51-2.31.85-5.41-1.45-6.92-2.31-1.51-5.41-.85-6.92,1.45l-7.56,11.58c-1.51,2.31-.85,5.41,1.45,6.92h0Z"/>
    </g>
    <rect class="cls-9" x="56.85" y="33.95" width="11.99" height="46.43" rx="6" ry="6"/>
    <rect class="cls-7" x="22.47" y="48.05" width="11.99" height="31.89" rx="6" ry="6"/>
    <rect class="cls-8" x="32.76" y="38.36" width="11.99" height="42.03" rx="6" ry="6"/>
    <rect class="cls-6" x="44.85" y="33.95" width="11.99" height="46.43" rx="6" ry="6"/>
    <g>
      <path d="m133.38,16.23c0-2.71,1.3-4.33,3.5-4.33h.11c2.2,0,3.5,1.63,3.5,4.33v26.28c0,4.88,1.64,6.84,5.25,6.84,1.53,0,3.22-.41,5.48-.95l.96-.14c1.86,0,3.22,1.63,3.22,4.06,0,2.1-.96,3.45-2.88,4.06-2.26.81-4.01,1.08-6.5,1.08-8.42,0-12.66-4.88-12.66-14.63v-26.61Zm36.9,52.75v-30.54h-4.92v29.66c0,2.71-1.3,4.33-3.5,4.33s-3.62-1.63-3.62-4.33V13.45c0-2.71,1.41-4.33,3.62-4.33s3.5,1.63,3.5,4.33v16.86h4.92V12.77c0-2.71,1.41-4.33,3.62-4.33s3.5,1.63,3.5,4.33v56.21c0,2.71-1.3,4.33-3.5,4.33s-3.62-1.63-3.62-4.33Z"/>
      <path d="m183.89,40.54h17.06v-4.61c0-2.51,1.47-4.06,3.67-4.06h.28c2.2,0,3.67,1.56,3.67,4.06v4.61h17.12c2.32,0,3.67,1.56,3.67,4s-1.41,4.13-3.67,4.13h-41.81c-2.26,0-3.67-1.69-3.67-4.13s1.36-4,3.67-4Zm3.56-5.89c-.4-.74-.62-1.63-.62-2.51,0-1.69.73-3.32,2.03-3.93,8.19-4.27,12.37-8.46,12.54-14.63.06-2.71,1.47-4.33,3.67-4.33h.23c2.26,0,3.67,1.63,3.67,4.33,0,2.17-.28,4.2-.9,6.1,4.52,2.37,9.83,5.76,13.22,8.67,1.07.74,1.58,1.83,1.58,3.25,0,1.02-.28,1.96-.85,2.78-.68,1.02-1.53,1.56-2.49,1.56-.62,0-1.36-.27-2.09-.88-3.62-2.91-9.66-6.91-13-8.6-2.77,3.52-6.89,6.57-12.32,9.21-.79.34-1.47.54-2.03.54-1.13,0-2.03-.54-2.66-1.56Zm.56,21.87c0-2.71,1.36-4.33,3.56-4.33,2.43,0,3.79,1.63,3.79,4.33v1.15c0,5.42,2.88,7.58,10.34,7.58,4.01,0,8.65-.88,11.87-2.44.62-.2,1.13-.34,1.47-.34,1.41,0,2.54,1.02,2.99,2.84.11.47.17.88.17,1.29,0,1.76-.85,3.05-2.54,3.93-4.12,1.83-9.15,2.84-13.96,2.84-11.58,0-17.69-5.21-17.69-15.44v-1.42Z"/>
      <path d="m231.52,26.45c0-9.28,5.59-16.73,14.46-16.73s14.41,7.45,14.41,16.73-5.99,16.66-14.41,16.66-14.46-7.32-14.46-16.66Zm14.46,8.53c4.07,0,7.06-3.39,7.06-8.53s-2.99-8.6-7.06-8.6-7.12,3.52-7.12,8.6,2.99,8.53,7.12,8.53Zm-6.72,18.62c0-2.51,1.47-4.06,3.67-4.06h.28c2.2,0,3.67,1.56,3.67,4.06v2.44c0,6.16,3.33,9.14,10.4,9.14,3.79,0,6.84-.68,10.45-2.1.62-.27,1.19-.41,1.7-.41,1.86,0,3.28,1.56,3.28,4.2,0,1.83-.96,3.11-2.94,4-3.67,1.63-8.19,2.44-13.56,2.44-11.13,0-16.95-6.1-16.95-17v-2.71Zm25.31-41.11c0-2.5,1.47-4.06,3.67-4.06h.28c2.2,0,3.67,1.56,3.67,4.06v9.82h4.35c2.2,0,3.5,1.56,3.5,4.06s-1.3,4.06-3.5,4.06h-4.35v18.22c0,2.51-1.47,4.06-3.67,4.06h-.28c-2.2,0-3.67-1.56-3.67-4.06V12.5Z"/>
      <path d="m282.25,53.61h9.44c6.05,0,13.56-.68,18.02-1.96.45-.14.85-.2,1.24-.2,1.98,0,3.22,1.56,3.22,4,0,1.96-1.02,3.45-2.66,4-4.97,1.56-12.77,2.3-19.78,2.3h-9.44c-2.2,0-3.5-1.42-3.56-3.93,0-2.51,1.41-4.2,3.5-4.2Zm-1.58-26.68c0-9.62,5.82-16.93,14.41-16.93s14.46,7.18,14.46,16.93-5.99,16.73-14.46,16.73-14.41-6.84-14.41-16.73Zm14.52,8.6c4.07,0,7.01-3.73,7.01-8.67s-2.88-8.74-7.01-8.74-7.23,3.59-7.23,8.74,2.99,8.67,7.23,8.67Zm21.58-23.03c0-2.5,1.47-4.06,3.67-4.06h.28c2.2,0,3.67,1.56,3.67,4.06v56.75c0,2.51-1.47,4.06-3.67,4.06h-.28c-2.2,0-3.67-1.56-3.67-4.06V12.5Z"/>
      <path d="m328.02,62.41c0-2.5,1.3-4.06,3.5-4.06h7.29v-21.67c0-2.71,1.53-4.33,3.79-4.33,2.43,0,3.84,1.63,3.84,4.33v21.67h4.46v-21.67c0-2.71,1.53-4.33,3.79-4.33,2.43,0,3.84,1.63,3.84,4.33v21.67h15.14c2.2,0,3.5,1.56,3.5,4.06s-1.3,4.06-3.5,4.06h-42.15c-2.2,0-3.5-1.56-3.5-4.06Zm10.79-51.2h26.39c2.71,0,4.63,2.3,4.63,5.76,0,13.75-.51,20.72-2.15,27.22-.51,1.83-1.69,2.84-3.22,2.84-.68,0-1.3-.13-1.81-.47-1.36-.68-2.03-2.03-2.03-4,0-.54.06-1.08.17-1.63,1.07-5.49,1.36-11.24,1.36-20.93,0-.48-.17-.68-.57-.68h-22.77c-2.2,0-3.5-1.56-3.5-4.06s1.3-4.06,3.5-4.06Z"/>
      <path d="m377.28,59.91c0-2.51,1.41-4.2,3.5-4.2h10.28v-6.91c-5.25-1.83-8.98-7.18-8.98-13.34,0-2.44.51-4.67,1.53-6.77h-1.58c-2.09,0-3.5-1.56-3.5-4s1.3-4.13,3.5-4.13h25.43c2.2,0,3.5,1.63,3.5,4.13s-1.41,4-3.5,4h-1.24c.96,2.1,1.47,4.4,1.47,6.77,0,6.16-3.73,11.51-8.98,13.34v6.5c3.96-.34,7.12-.88,9.55-1.56.45-.13.85-.2,1.24-.2,1.98,0,3.22,1.56,3.22,4,0,1.96-1.02,3.45-2.66,4-4.97,1.56-12.77,2.3-19.78,2.3h-9.44c-2.2,0-3.5-1.42-3.56-3.93Zm6.22-50.52c.62-1.02,1.53-1.56,2.6-1.56.62,0,1.19.2,1.81.54l.79.47c.51.34,1.64.47,3.39.47h10.68c2.09,0,3.45,1.69,3.45,4.13s-1.41,4-3.5,4h-9.72c-3.79,0-6.1-.34-7.97-1.69l-.68-.47c-.96-.74-1.47-2.03-1.47-3.45,0-1.02.23-1.83.62-2.44Zm11.41,31.9c3.16,0,5.42-2.37,5.42-5.89,0-3.25-2.32-5.89-5.42-5.89-3.33,0-5.48,2.44-5.48,5.89s2.26,5.89,5.48,5.89Zm20.28-28.78c0-2.5,1.47-4.06,3.67-4.06h.28c2.2,0,3.67,1.56,3.67,4.06v56.75c0,2.51-1.47,4.06-3.67,4.06h-.28c-2.2,0-3.67-1.56-3.67-4.06V12.5Z"/>
    </g>
    <g>
      <path d="m203.28,109.92v-14.63c0-.9.61-1.47,1.47-1.47h4.47c3.53,0,5.84,2.14,5.84,5.25s-2.2,5.12-5.84,5.12h-3.91v5.73c0,.67-.36,1.05-1.01,1.05s-1.03-.38-1.03-1.05Zm5.94-7.62c2.27,0,3.74-1.28,3.74-3.28,0-2.1-1.45-3.32-3.74-3.32h-3.59c-.17,0-.31.15-.31.32v6.28h3.91Z"/>
      <path d="m216.01,109.92v-9.7c0-.67.36-1.05,1.03-1.05s1.01.38,1.01,1.05v.48c.78-1.03,1.91-1.62,3.17-1.62.99,0,1.74.17,2.27.48.29.19.44.44.44.76,0,.21-.04.38-.15.53-.15.27-.38.42-.69.42-.17,0-.34-.04-.5-.13-.36-.15-.8-.23-1.34-.23-1.76,0-3.19,1.6-3.19,3.91v5.1c0,.67-.36,1.05-1.01,1.05s-1.03-.38-1.03-1.05Z"/>
      <path d="m227.53,110.19c-1.83-1.09-2.94-3-2.94-5.17,0-1.07.27-2.08.8-2.98,1.07-1.85,2.96-2.96,5.12-2.96,1.07,0,2.08.27,2.98.8,1.78,1.09,2.92,3.02,2.92,5.14,0,1.09-.25,2.08-.78,2.98-1.07,1.85-2.96,2.98-5.12,2.98-1.07,0-2.08-.27-2.98-.8Zm2.98-1.01c2.25,0,3.84-1.79,3.84-4.14s-1.6-4.14-3.84-4.14-3.86,1.68-3.86,4.14,1.7,4.14,3.86,4.14Z"/>
      <path d="m241.29,110.25l-4.3-9.66c-.06-.19-.1-.34-.1-.44,0-.52.46-.96,1.11-.96.4,0,.71.23.92.71l3.44,8.11,3.4-8.11c.21-.48.52-.71.94-.71.1,0,.23.02.4.08.46.19.69.48.69.88,0,.11-.04.25-.1.44l-4.26,9.66c-.21.48-.57.71-1.07.71s-.86-.23-1.07-.71Z"/>
      <path d="m248.26,105.05c0-3.67,2.1-5.96,5.4-5.96,1.03,0,1.97.25,2.81.76,1.68,1.03,2.62,2.94,2.54,5.21-.02.59-.38.92-1.05.92h-7.56c.31,2.08,1.66,3.23,3.59,3.23,1.07,0,1.95-.27,2.67-.82.23-.19.48-.27.76-.27.23,0,.44.08.61.25s.25.38.25.61c0,.29-.13.57-.38.8-.78.69-2.35,1.22-3.93,1.22-3.42,0-5.71-2.27-5.71-5.94Zm8.61-.88c-.06-1.91-1.41-3.25-3.19-3.25s-2.98,1.13-3.3,3.25h6.49Z"/>
      <path d="m264.1,109.92v-9.7c0-.67.36-1.05,1.03-1.05s1.01.38,1.01,1.05v.46c.78-1.07,1.74-1.6,2.94-1.6,1.51,0,2.71.63,3.44,1.83.84-1.18,2.14-1.83,3.59-1.83,2.67,0,4.41,1.95,4.43,5.17v5.67c0,.67-.36,1.05-1.01,1.05s-1.03-.38-1.03-1.05v-5.61c0-2.29-.86-3.4-2.39-3.4s-2.77,1.34-2.77,3.51v5.5c0,.67-.36,1.05-1.01,1.05s-1.03-.38-1.03-1.05v-5.61c0-2.29-.86-3.4-2.39-3.4s-2.77,1.43-2.77,3.72v5.29c0,.67-.36,1.05-1.01,1.05s-1.03-.38-1.03-1.05Z"/>
      <path d="m281.31,114.2c-.25-.31-.38-.59-.38-.84,0-.19.08-.4.25-.59.21-.21.44-.31.69-.31.27,0,.48.1.67.31.36.4.76.61,1.15.61.99,0,1.49-1.16,2.29-3.17l-4.6-9.62c-.06-.19-.1-.34-.1-.44,0-.4.27-.73.71-.88.17-.06.29-.08.4-.08.4,0,.71.23.92.71l3.7,8.11,3.15-8.11c.17-.44.52-.71.94-.71.1,0,.23.02.4.08.46.19.69.48.69.88,0,.11-.04.25-.1.44l-4.2,10.02c-.44,1.11-.84,2.02-1.24,2.71-.78,1.32-1.72,1.89-3.09,1.89-.82,0-1.7-.36-2.27-1.01Z"/>
      <path d="m297.23,108.36v-13.82c0-.67.36-1.05,1.03-1.05s1.01.38,1.01,1.05v13.86c0,.5.21.73.69.73.67,0,1.05.32,1.05.92s-.38.92-1.05.92c-1.85,0-2.73-.8-2.73-2.62Z"/>
      <path d="m302.71,94.11c.76,0,1.34.59,1.34,1.32s-.59,1.3-1.34,1.3-1.34-.57-1.34-1.3.59-1.32,1.34-1.32Zm-1.03,15.81v-9.7c0-.67.36-1.05,1.03-1.05s1.01.38,1.01,1.05v9.7c0,.67-.36,1.05-1.01,1.05s-1.03-.38-1.03-1.05Z"/>
      <path d="m307.04,109.92v-8.82h-1.15c-.67,0-1.05-.31-1.05-.92s.38-.92,1.05-.92h1.15v-.57c0-3.55,1.49-5.23,4.24-5.23,1.28,0,2.41.46,3.17,1.22.27.27.4.55.4.86,0,.23-.08.42-.23.57-.21.21-.44.32-.67.32-.25,0-.48-.11-.69-.32-.61-.59-1.15-.82-1.97-.82-1.49,0-2.2,1.01-2.2,3.53v.44h4.09c.67,0,1.05.34,1.05.92s-.38.92-1.05.92h-4.09v8.82c0,.67-.36,1.05-1.03,1.05s-1.01-.38-1.01-1.05Z"/>
      <path d="m315.1,105.05c0-3.67,2.1-5.96,5.4-5.96,1.03,0,1.97.25,2.81.76,1.68,1.03,2.62,2.94,2.54,5.21-.02.59-.38.92-1.05.92h-7.56c.31,2.08,1.66,3.23,3.59,3.23,1.07,0,1.95-.27,2.67-.82.23-.19.48-.27.76-.27.23,0,.44.08.61.25s.25.38.25.61c0,.29-.13.57-.38.8-.78.69-2.35,1.22-3.93,1.22-3.42,0-5.71-2.27-5.71-5.94Zm8.61-.88c-.06-1.91-1.41-3.25-3.19-3.25s-2.98,1.13-3.3,3.25h6.49Z"/>
      <path d="m332.45,109.92v-8.82h-1.15c-.67,0-1.05-.31-1.05-.92s.38-.92,1.05-.92h1.15v-.57c0-3.55,1.49-5.23,4.24-5.23,1.28,0,2.41.46,3.17,1.22.27.27.4.55.4.86,0,.23-.08.42-.23.57-.21.21-.44.32-.67.32-.25,0-.48-.11-.69-.32-.61-.59-1.15-.82-1.97-.82-1.49,0-2.2,1.01-2.2,3.53v.44h4.09c.67,0,1.05.34,1.05.92s-.38.92-1.05.92h-4.09v8.82c0,.67-.36,1.05-1.03,1.05s-1.01-.38-1.01-1.05Z"/>
      <path d="m340.79,109.92v-9.7c0-.67.36-1.05,1.03-1.05s1.01.38,1.01,1.05v.48c.78-1.03,1.91-1.62,3.17-1.62.99,0,1.74.17,2.27.48.29.19.44.44.44.76,0,.21-.04.38-.15.53-.15.27-.38.42-.69.42-.17,0-.34-.04-.5-.13-.36-.15-.8-.23-1.34-.23-1.76,0-3.19,1.6-3.19,3.91v5.1c0,.67-.36,1.05-1.01,1.05s-1.03-.38-1.03-1.05Z"/>
      <path d="m352.31,110.19c-1.83-1.09-2.94-3-2.94-5.17,0-1.07.27-2.08.8-2.98,1.07-1.85,2.96-2.96,5.12-2.96,1.07,0,2.08.27,2.98.8,1.78,1.09,2.92,3.02,2.92,5.14,0,1.09-.25,2.08-.78,2.98-1.07,1.85-2.96,2.98-5.12,2.98-1.07,0-2.08-.27-2.98-.8Zm2.98-1.01c2.25,0,3.84-1.79,3.84-4.14s-1.6-4.14-3.84-4.14-3.86,1.68-3.86,4.14,1.7,4.14,3.86,4.14Z"/>
      <path d="m362.56,109.92v-9.7c0-.67.36-1.05,1.03-1.05s1.01.38,1.01,1.05v.46c.78-1.07,1.74-1.6,2.94-1.6,1.51,0,2.71.63,3.44,1.83.84-1.18,2.14-1.83,3.59-1.83,2.67,0,4.41,1.95,4.43,5.17v5.67c0,.67-.36,1.05-1.01,1.05s-1.03-.38-1.03-1.05v-5.61c0-2.29-.86-3.4-2.39-3.4s-2.77,1.34-2.77,3.51v5.5c0,.67-.36,1.05-1.01,1.05s-1.03-.38-1.03-1.05v-5.61c0-2.29-.86-3.4-2.39-3.4s-2.77,1.43-2.77,3.72v5.29c0,.67-.36,1.05-1.01,1.05s-1.03-.38-1.03-1.05Z"/>
      <path d="m387.76,109.92c-2.18-1.45-3.44-4.18-3.44-7.54,0-1.68.31-3.19.92-4.54,1.24-2.69,3.55-4.22,6.38-4.22,1.78,0,3.51.59,4.43,1.45.23.23.34.46.34.73,0,.19-.06.4-.21.59-.19.23-.42.36-.69.36-.21,0-.4-.06-.59-.21-1.07-.73-2.04-1.09-3.28-1.09-3.02,0-5.25,2.6-5.25,6.89,0,1.37.21,2.56.65,3.57.86,2.08,2.48,3.28,4.49,3.28,1.18,0,2.44-.34,3.04-.84v-5.02c0-.17-.15-.32-.31-.32h-2.06c-.67,0-1.05-.31-1.05-.92s.38-.96,1.05-.96h2.94c.9,0,1.47.57,1.47,1.47v5.67c0,.59-.21.99-.63,1.34-1.01.84-2.75,1.41-4.45,1.41-1.43,0-2.69-.36-3.76-1.09Z"/>
      <path d="m400.84,110.19c-1.83-1.09-2.94-3-2.94-5.17,0-1.07.27-2.08.8-2.98,1.07-1.85,2.96-2.96,5.12-2.96,1.07,0,2.08.27,2.98.8,1.78,1.09,2.92,3.02,2.92,5.14,0,1.09-.25,2.08-.78,2.98-1.07,1.85-2.96,2.98-5.12,2.98-1.07,0-2.08-.27-2.98-.8Zm2.98-1.01c2.25,0,3.84-1.79,3.84-4.14s-1.6-4.14-3.84-4.14-3.86,1.68-3.86,4.14,1.7,4.14,3.86,4.14Z"/>
      <path d="m413.63,110.19c-1.76-1.07-2.81-2.98-2.81-5.17,0-1.09.25-2.08.76-2.98,1.01-1.85,2.86-2.96,4.93-2.96,1.49,0,2.73.55,3.67,1.64v-6.17c0-.67.36-1.05,1.03-1.05s1.01.38,1.01,1.05v15.37c0,.67-.36,1.05-1.01,1.05s-1.03-.38-1.03-1.05v-.59c-.94,1.11-2.16,1.66-3.67,1.66-1.05,0-2.02-.27-2.88-.8Zm2.88-1.01c2.04,0,3.65-1.7,3.65-4.14s-1.62-4.14-3.65-4.14-3.63,1.74-3.63,4.14,1.53,4.14,3.63,4.14Z"/>
    </g>
  </g>
</svg>