<svg xmlns="http://www.w3.org/2000/svg" viewBox="0 0 448.79 112.58"><defs><style>.cls-1{fill:#ec1c23;}.cls-2{fill:none;stroke:#fff;stroke-miterlimit:10;stroke-width:3px;}.cls-3{fill:#fff;}</style></defs><title>cih-logo-svgAsset 25</title><g id="Layer_2" data-name="Layer 2"><g id="Combo"><path d="M122.39,17c0-2.4,1.46-3.84,4-3.84h.12c2.49,0,4,1.44,4,3.84V40.32c0,4.33,1.84,6.07,5.92,6.07a35.3,35.3,0,0,0,6.18-.84l1.09-.12a3.46,3.46,0,0,1,3.63,3.6c0,1.86-1.09,3.06-3.25,3.6a24.54,24.54,0,0,1-7.33,1c-9.49,0-14.27-4.32-14.27-13ZM164,63.8V36.72h-5.55V63c0,2.41-1.46,3.85-3.95,3.85s-4.08-1.44-4.08-3.85V14.57c0-2.4,1.6-3.84,4.08-3.84s3.95,1.44,3.95,3.84v15H164V14c0-2.4,1.59-3.84,4.07-3.84s4,1.44,4,3.84V63.8c0,2.4-1.46,3.84-4,3.84S164,66.2,164,63.8Z"/><path d="M179.35,38.58h19.24V34.5c0-2.22,1.66-3.6,4.14-3.6h.32c2.48,0,4.14,1.38,4.14,3.6v4.08H226.5c2.61,0,4.14,1.38,4.14,3.54s-1.59,3.67-4.14,3.67H179.35c-2.55,0-4.15-1.5-4.15-3.67S176.73,38.58,179.35,38.58Zm4-5.22a4,4,0,0,1-.7-2.22A3.64,3.64,0,0,1,185,27.66c9.24-3.78,14-7.51,14.15-13,.06-2.4,1.66-3.84,4.14-3.84h.26c2.54,0,4.14,1.44,4.14,3.84a13.88,13.88,0,0,1-1,5.4,93.46,93.46,0,0,1,14.91,7.69,3.09,3.09,0,0,1,1.78,2.88,3.67,3.67,0,0,1-.95,2.46,3.62,3.62,0,0,1-2.81,1.38,4.42,4.42,0,0,1-2.36-.78,111.53,111.53,0,0,0-14.65-7.62c-3.12,3.12-7.77,5.82-13.89,8.16a7.56,7.56,0,0,1-2.3.48A3.62,3.62,0,0,1,183.36,33.36ZM184,52.75c0-2.4,1.53-3.84,4-3.84,2.74,0,4.27,1.44,4.27,3.84v1c0,4.8,3.25,6.72,11.66,6.72a40.89,40.89,0,0,0,13.38-2.16A7.73,7.73,0,0,1,219,58a3.41,3.41,0,0,1,3.38,2.52,4.11,4.11,0,0,1,.19,1.14c0,1.56-1,2.71-2.87,3.49a49.5,49.5,0,0,1-15.74,2.52C190.88,67.7,184,63.07,184,54Z"/><path d="M233.05,26.1c0-8.23,6.31-14.83,16.32-14.83s16.25,6.6,16.25,14.83c0,8.52-6.76,14.76-16.25,14.76C239.43,40.86,233.05,34.38,233.05,26.1Zm16.32,7.56c4.58,0,8-3,8-7.56s-3.38-7.63-8-7.63-8,3.13-8,7.63S244.72,33.66,249.37,33.66Zm-7.59,16.51c0-2.22,1.66-3.6,4.15-3.6h.31c2.49,0,4.15,1.38,4.15,3.6v2.16c0,5.46,3.76,8.1,11.72,8.1a37.51,37.51,0,0,0,11.79-1.86,6,6,0,0,1,1.91-.36,3.51,3.51,0,0,1,3.7,3.72c0,1.63-1.09,2.77-3.32,3.55a47,47,0,0,1-15.29,2.16c-12.55,0-19.12-5.41-19.12-15.07Zm28.55-36.44c0-2.22,1.66-3.6,4.14-3.6h.32c2.49,0,4.14,1.38,4.14,3.6v8.7h4.91c2.48,0,4,1.39,4,3.61s-1.47,3.6-4,3.6h-4.91V45.79c0,2.22-1.65,3.6-4.14,3.6h-.32c-2.48,0-4.14-1.38-4.14-3.6Z"/><path d="M290.27,50.17h10.64c6.82,0,15.29-.6,20.33-1.74a6,6,0,0,1,1.4-.18,3.34,3.34,0,0,1,3.63,3.54,3.64,3.64,0,0,1-3,3.54c-5.6,1.38-14.4,2-22.3,2H290.33c-2.48,0-3.95-1.26-4-3.48A3.64,3.64,0,0,1,290.27,50.17Zm-1.79-23.65c0-8.53,6.57-15,16.25-15,9.43,0,16.31,6.36,16.31,15s-6.75,14.83-16.31,14.83S288.48,35.28,288.48,26.52Zm16.38,7.62a7.57,7.57,0,0,0,7.9-7.68c0-4.57-3.25-7.75-7.9-7.75-4.84,0-8.16,3.18-8.16,7.75C296.7,30.84,300.08,34.14,304.86,34.14ZM329.2,13.73c0-2.22,1.66-3.6,4.14-3.6h.32c2.49,0,4.14,1.38,4.14,3.6V64c0,2.22-1.65,3.6-4.14,3.6h-.32c-2.48,0-4.14-1.38-4.14-3.6Z"/><path d="M341.87,58c0-2.22,1.47-3.6,4-3.6h8.22V35.16c0-2.4,1.72-3.84,4.26-3.84,2.74,0,4.34,1.44,4.34,3.84V54.37h5V35.16c0-2.4,1.72-3.84,4.27-3.84,2.74,0,4.33,1.44,4.33,3.84V54.37h17.08c2.48,0,3.95,1.38,3.95,3.6s-1.47,3.6-3.95,3.6H345.83C343.34,61.57,341.87,60.19,341.87,58Zm12.18-45.38H383.8a4.92,4.92,0,0,1,5.23,5.1c0,12.19-.58,18.37-2.42,24.14A3.67,3.67,0,0,1,383,44.35a4.43,4.43,0,0,1-2-.42,3.49,3.49,0,0,1-2.29-3.55,5.48,5.48,0,0,1,.19-1.44c1.21-4.86,1.53-10,1.53-18.55,0-.42-.19-.6-.64-.6H354.05c-2.49,0-4-1.38-4-3.6S351.56,12.59,354.05,12.59Z"/><path d="M397.43,55.75A3.64,3.64,0,0,1,401.38,52H413V45.91c-5.93-1.62-10.13-6.37-10.13-11.83a11.15,11.15,0,0,1,1.72-6h-1.79c-2.35,0-3.95-1.38-3.95-3.54s1.47-3.67,3.95-3.67h28.68c2.48,0,4,1.45,4,3.67s-1.6,3.54-4,3.54h-1.4a11.89,11.89,0,0,1,1.65,6c0,5.46-4.2,10.21-10.13,11.83v5.76a75.22,75.22,0,0,0,10.77-1.38,6,6,0,0,1,1.4-.18,3.34,3.34,0,0,1,3.63,3.54,3.63,3.63,0,0,1-3,3.54c-5.61,1.38-14.4,2-22.3,2H401.45C399,59.23,397.49,58,397.43,55.75Zm7-44.78a3.58,3.58,0,0,1,2.93-1.38,5.07,5.07,0,0,1,2,.48l.89.42a10.31,10.31,0,0,0,3.83.42h12a3.58,3.58,0,0,1,3.89,3.66c0,2.16-1.6,3.54-4,3.54h-11c-4.26,0-6.88-.3-9-1.5l-.76-.42a3.48,3.48,0,0,1-1.66-3.06A3.28,3.28,0,0,1,404.44,11Zm12.87,28.27c3.57,0,6.12-2.1,6.12-5.22,0-2.88-2.61-5.22-6.12-5.22-3.76,0-6.18,2.16-6.18,5.22S413.68,39.24,417.31,39.24Zm22.88-25.51c0-2.22,1.65-3.6,4.14-3.6h.32c2.48,0,4.14,1.38,4.14,3.6V64c0,2.22-1.66,3.6-4.14,3.6h-.32c-2.49,0-4.14-1.38-4.14-3.6Z"/><path d="M206.56,104.19V85.35c0-1.16.64-1.89,1.55-1.89h4.73c3.72,0,6.16,2.75,6.16,6.75s-2.33,6.6-6.16,6.6h-4.13v7.38c0,.86-.37,1.35-1.06,1.35S206.56,105.05,206.56,104.19Zm6.28-9.81c2.39,0,3.94-1.65,3.94-4.22s-1.53-4.27-3.94-4.27H209a.39.39,0,0,0-.33.41v8.08Z"/><path d="M220,104.19V91.7c0-.86.38-1.35,1.09-1.35s1.06.49,1.06,1.35v.62a4,4,0,0,1,3.35-2.08,4.09,4.09,0,0,1,2.4.62,1.19,1.19,0,0,1,.46,1,1.28,1.28,0,0,1-.15.67.79.79,0,0,1-.74.54,1,1,0,0,1-.53-.16,3.08,3.08,0,0,0-1.42-.3c-1.86,0-3.37,2.06-3.37,5v6.57c0,.86-.37,1.35-1.06,1.35S220,105.05,220,104.19Z"/><path d="M232.18,104.54a8.14,8.14,0,0,1-3.11-6.65,8.78,8.78,0,0,1,.85-3.84,6.06,6.06,0,0,1,5.41-3.81,5.37,5.37,0,0,1,3.15,1,8.26,8.26,0,0,1,3.08,6.62,8.88,8.88,0,0,1-.82,3.84,6.11,6.11,0,0,1-5.41,3.83A5.4,5.4,0,0,1,232.18,104.54Zm3.15-1.3c2.37,0,4-2.3,4-5.32s-1.68-5.33-4-5.33-4.08,2.16-4.08,5.33S233,103.24,235.33,103.24Z"/><path d="M246.71,104.62l-4.55-12.43a2.38,2.38,0,0,1-.11-.57,1.19,1.19,0,0,1,1.17-1.24c.42,0,.76.29,1,.91l3.64,10.44,3.59-10.44c.22-.62.55-.91,1-.91a.9.9,0,0,1,.42.11,1.19,1.19,0,0,1,.73,1.13,2.38,2.38,0,0,1-.11.57L249,104.62a1.15,1.15,0,0,1-2.26,0Z"/><path d="M254.07,97.92c0-4.73,2.22-7.68,5.7-7.68a5,5,0,0,1,3,1c1.77,1.33,2.77,3.79,2.68,6.71,0,.75-.4,1.19-1.11,1.19h-8c.33,2.67,1.75,4.16,3.79,4.16a3.94,3.94,0,0,0,2.82-1.06,1.1,1.1,0,0,1,.8-.35.82.82,0,0,1,.64.33,1.17,1.17,0,0,1,.27.78,1.55,1.55,0,0,1-.4,1,6,6,0,0,1-4.15,1.56C256.49,105.56,254.07,102.64,254.07,97.92Zm9.09-1.14c-.07-2.46-1.48-4.19-3.37-4.19s-3.15,1.46-3.48,4.19Z"/><path d="M270.79,104.19V91.7c0-.86.38-1.35,1.09-1.35s1.06.49,1.06,1.35v.6a3.56,3.56,0,0,1,3.11-2.06,3.91,3.91,0,0,1,3.63,2.35,4.4,4.4,0,0,1,3.8-2.35c2.81,0,4.65,2.52,4.68,6.65v7.3c0,.86-.38,1.35-1.07,1.35s-1.09-.49-1.09-1.35V97c0-3-.9-4.38-2.52-4.38s-2.93,1.73-2.93,4.52v7.08c0,.86-.38,1.35-1.06,1.35s-1.09-.49-1.09-1.35V97c0-3-.91-4.38-2.53-4.38s-2.93,1.84-2.93,4.79v6.81c0,.86-.37,1.35-1.06,1.35S270.79,105.05,270.79,104.19Z"/><path d="M289,109.7a2,2,0,0,1-.4-1.08,1.28,1.28,0,0,1,.27-.76.93.93,0,0,1,.73-.4.84.84,0,0,1,.71.4,1.6,1.6,0,0,0,1.22.78c1,0,1.57-1.48,2.41-4.08l-4.85-12.37a2.38,2.38,0,0,1-.11-.57,1.19,1.19,0,0,1,.75-1.13.9.9,0,0,1,.42-.11c.42,0,.76.29,1,.91l3.9,10.44,3.33-10.44a1.12,1.12,0,0,1,1-.91.9.9,0,0,1,.42.11,1.2,1.2,0,0,1,.73,1.13,3,3,0,0,1-.11.57l-4.44,12.89a28.14,28.14,0,0,1-1.31,3.48c-.82,1.71-1.81,2.44-3.26,2.44A3,3,0,0,1,289,109.7Z"/><path d="M305.79,102.19V84.4c0-.86.38-1.35,1.09-1.35s1.06.49,1.06,1.35v17.84c0,.65.22.94.73.94.71,0,1.11.41,1.11,1.19s-.4,1.19-1.11,1.19C306.72,105.56,305.79,104.54,305.79,102.19Z"/><path d="M311.58,83.84a1.56,1.56,0,0,1,1.42,1.7,1.44,1.44,0,1,1-2.84,0A1.56,1.56,0,0,1,311.58,83.84Zm-1.09,20.35V91.7c0-.86.38-1.35,1.09-1.35s1.06.49,1.06,1.35v12.49c0,.86-.37,1.35-1.06,1.35S310.49,105.05,310.49,104.19Z"/><path d="M316.15,104.19V92.84h-1.22c-.71,0-1.11-.41-1.11-1.19a1,1,0,0,1,1.11-1.19h1.22v-.73c0-4.57,1.57-6.73,4.48-6.73A4.28,4.28,0,0,1,324,84.57a1.7,1.7,0,0,1,.42,1.1,1.09,1.09,0,0,1-.25.73.94.94,0,0,1-.71.41,1,1,0,0,1-.73-.41,2.49,2.49,0,0,0-2.08-1.05c-1.58,0-2.33,1.3-2.33,4.54v.57h4.32a1.19,1.19,0,0,1,0,2.38H318.3v11.35c0,.86-.38,1.35-1.09,1.35S316.15,105.05,316.15,104.19Z"/><path d="M324.67,97.92c0-4.73,2.21-7.68,5.69-7.68a5,5,0,0,1,3,1c1.77,1.33,2.77,3.79,2.68,6.71,0,.75-.4,1.19-1.11,1.19h-8c.33,2.67,1.75,4.16,3.79,4.16a4,4,0,0,0,2.82-1.06,1.1,1.1,0,0,1,.79-.35.82.82,0,0,1,.65.33,1.22,1.22,0,0,1,.26.78,1.5,1.5,0,0,1-.4,1,6,6,0,0,1-4.14,1.56C327.08,105.56,324.67,102.64,324.67,97.92Zm9.09-1.14c-.07-2.46-1.49-4.19-3.37-4.19s-3.15,1.46-3.48,4.19Z"/><path d="M343,104.19V92.84h-1.22c-.71,0-1.11-.41-1.11-1.19a1,1,0,0,1,1.11-1.19H343v-.73c0-4.57,1.57-6.73,4.47-6.73a4.27,4.27,0,0,1,3.35,1.57,1.65,1.65,0,0,1,.42,1.1,1.09,1.09,0,0,1-.24.73,1,1,0,0,1-.71.41.94.94,0,0,1-.73-.41,2.5,2.5,0,0,0-2.09-1.05c-1.57,0-2.32,1.3-2.32,4.54v.57h4.32a1.19,1.19,0,0,1,0,2.38h-4.32v11.35c0,.86-.38,1.35-1.09,1.35S343,105.05,343,104.19Z"/><path d="M351.79,104.19V91.7c0-.86.38-1.35,1.09-1.35s1.06.49,1.06,1.35v.62a4,4,0,0,1,3.35-2.08,4.09,4.09,0,0,1,2.4.62,1.19,1.19,0,0,1,.46,1,1.28,1.28,0,0,1-.15.67.79.79,0,0,1-.74.54,1,1,0,0,1-.53-.16,3.11,3.11,0,0,0-1.42-.3c-1.86,0-3.37,2.06-3.37,5v6.57c0,.86-.38,1.35-1.06,1.35S351.79,105.05,351.79,104.19Z"/><path d="M364,104.54a8.14,8.14,0,0,1-3.11-6.65,8.78,8.78,0,0,1,.85-3.84,6.06,6.06,0,0,1,5.41-3.81,5.31,5.31,0,0,1,3.14,1,8.23,8.23,0,0,1,3.09,6.62,8.88,8.88,0,0,1-.82,3.84,6.11,6.11,0,0,1-5.41,3.83A5.38,5.38,0,0,1,364,104.54Zm3.15-1.3c2.37,0,4.05-2.3,4.05-5.32s-1.68-5.33-4.05-5.33S363,94.75,363,97.92,364.83,103.24,367.12,103.24Z"/><path d="M374.79,104.19V91.7c0-.86.38-1.35,1.09-1.35s1.06.49,1.06,1.35v.6a3.56,3.56,0,0,1,3.11-2.06,3.91,3.91,0,0,1,3.63,2.35,4.4,4.4,0,0,1,3.8-2.35c2.81,0,4.65,2.52,4.67,6.65v7.3c0,.86-.37,1.35-1.06,1.35s-1.09-.49-1.09-1.35V97c0-3-.91-4.38-2.52-4.38s-2.93,1.73-2.93,4.52v7.08c0,.86-.38,1.35-1.07,1.35s-1.08-.49-1.08-1.35V97c0-3-.91-4.38-2.53-4.38s-2.93,1.84-2.93,4.79v6.81c0,.86-.38,1.35-1.06,1.35S374.79,105.05,374.79,104.19Z"/><path d="M401.41,104.19c-2.31-1.87-3.64-5.38-3.64-9.71a16.69,16.69,0,0,1,1-5.83c1.31-3.46,3.75-5.43,6.75-5.43a6.39,6.39,0,0,1,4.67,1.86,1.4,1.4,0,0,1,.36,1,1.44,1.44,0,0,1-.22.75.89.89,0,0,1-.73.46A.84.84,0,0,1,409,87a5.15,5.15,0,0,0-3.46-1.4c-3.2,0-5.55,3.35-5.55,8.86a13.48,13.48,0,0,0,.69,4.59c.91,2.68,2.62,4.22,4.75,4.22a4.86,4.86,0,0,0,3.21-1.08V95.7a.38.38,0,0,0-.33-.41h-2.18c-.7,0-1.1-.4-1.1-1.18s.4-1.25,1.1-1.25h3.11c.95,0,1.55.73,1.55,1.89v7.3a2.3,2.3,0,0,1-.66,1.73,6.9,6.9,0,0,1-4.7,1.81A6,6,0,0,1,401.41,104.19Z"/><path d="M415.22,104.54a8.13,8.13,0,0,1-3.1-6.65,8.92,8.92,0,0,1,.84-3.84,6.07,6.07,0,0,1,5.41-3.81,5.34,5.34,0,0,1,3.15,1,8.23,8.23,0,0,1,3.08,6.62,8.74,8.74,0,0,1-.82,3.84,6.1,6.1,0,0,1-5.41,3.83A5.43,5.43,0,0,1,415.22,104.54Zm3.15-1.3c2.38,0,4.06-2.3,4.06-5.32s-1.68-5.33-4.06-5.33-4.08,2.16-4.08,5.33S416.09,103.24,418.37,103.24Z"/><path d="M428.73,104.54a8.16,8.16,0,0,1-3-6.65,9.1,9.1,0,0,1,.8-3.84,5.83,5.83,0,0,1,5.21-3.81,4.58,4.58,0,0,1,3.88,2.11V84.4c0-.86.38-1.35,1.09-1.35s1.06.49,1.06,1.35v19.79c0,.86-.38,1.35-1.06,1.35s-1.09-.49-1.09-1.35v-.76a4.52,4.52,0,0,1-3.88,2.13A5,5,0,0,1,428.73,104.54Zm3-1.3c2.15,0,3.86-2.19,3.86-5.32s-1.71-5.33-3.86-5.33-3.84,2.25-3.84,5.33S429.55,103.24,431.77,103.24Z"/></g><g id="ver0.1"><rect class="cls-1" x="36.42" width="39.74" height="112.58" transform="translate(0 112.58) rotate(-90)"/><rect class="cls-1" x="36.42" width="39.74" height="112.58"/><circle class="cls-2" cx="55.93" cy="56.14" r="18.49"/><polygon class="cls-3" points="65.99 56.22 50.95 47.54 50.95 64.9 65.99 56.22"/></g></g></svg>